<svg width="62" height="54" viewBox="0 0 62 54" fill="none" xmlns="http://www.w3.org/2000/svg">
<g clip-path="url(#clip0_590_11693)">
<path d="M0 6.06105C0.23273 4.70075 0.531955 3.38065 1.29664 2.22473C1.64872 1.66319 2.10157 1.18826 2.62685 0.829662C3.15213 0.471065 3.73852 0.236524 4.34934 0.140721C4.8874 0.0484928 5.43098 0.00145194 5.97543 0C22.6635 0 39.3496 0 56.0336 0C58.4909 0 60.3044 1.11907 61.4439 3.52137C62.1118 4.93529 62.0997 6.45641 61.8126 7.97084C61.1809 11.2979 59.3946 13.851 57.025 15.7943C52.8238 19.2285 48.4956 22.4751 44.2067 25.7787C41.1631 28.1241 38.1315 30.5029 35.0244 32.7478C34.0198 33.4449 32.9162 33.949 31.7602 34.2388C30.0162 34.7011 28.4566 33.84 27.0451 32.8349C24.5848 31.0424 22.1789 29.1493 19.764 27.2999C14.928 23.5708 10.092 19.8752 5.28933 16.0757C3.29085 14.4846 1.69692 12.3484 0.661922 9.87392C0.391065 9.11409 0.169854 8.33364 0 7.53862L0 6.06105Z" fill="#602C93"/>
<path d="M0 17.4688C3.75996 21.5195 8.39643 24.2502 12.5795 27.661C13.5044 28.4115 14.4686 29.105 15.4479 29.8522C15.3391 29.9963 15.2605 30.1169 15.1668 30.2207L0.229708 46.7856C0.157169 46.8627 0.0755618 46.9297 0 47V17.4688Z" fill="#602C93"/>
<path d="M1.95898 52.4876L19.4893 33.0547C20.112 33.5472 20.7739 34.0598 21.4146 34.5758C23.3158 36.1371 25.2834 37.5544 27.508 38.5059C30.0801 39.6083 32.5676 39.4139 35.0823 38.2346C37.3975 37.149 39.3712 35.4972 41.3962 33.9124C41.7559 33.631 42.1125 33.3428 42.4208 33.0982L59.9663 52.5512C59.1674 53.3613 58.1495 53.856 57.0708 53.9585C56.7293 53.9947 56.3861 54.0092 56.0431 54.002C39.3369 54.002 22.6307 54.002 5.92447 54.002C4.45253 53.9987 3.10752 53.6402 1.95898 52.4876Z" fill="#602C93"/>
<path d="M46.6602 29.8454C51.6321 25.6774 57.2146 22.3168 61.9599 17.6328V46.7822L46.6602 29.8454Z" fill="#602C93"/>
</g>
<defs>
<clipPath id="clip0_590_11693">
<rect width="62" height="54" fill="white"/>
</clipPath>
</defs>
</svg>
