<svg width="13" height="17" viewBox="0 0 13 17" fill="none" xmlns="http://www.w3.org/2000/svg">
<g clip-path="url(#clip0_558_2573)">
<path d="M6.19226 16.9967C5.87722 16.5609 5.56002 16.1305 5.24064 15.7056C3.95444 13.9623 2.66389 12.2311 1.36899 10.5118C0.431267 9.33108 -0.0542554 7.85281 0.000227868 6.34431C0.114292 3.8569 1.26145 1.96111 3.44169 0.784414C4.22705 0.354716 5.09346 0.0948247 5.98508 0.0214893C6.87671 -0.0518461 7.77376 0.0630019 8.61842 0.358631C9.46309 0.65426 10.2366 1.12411 10.8892 1.7379C11.5417 2.35169 12.0588 3.0958 12.4071 3.92227C12.8902 4.9503 13.0827 6.09158 12.9638 7.22178C12.8448 8.35199 12.4189 9.42778 11.7325 10.332C10.1519 12.535 8.4996 14.689 6.8799 16.8692C6.84731 16.915 6.82124 16.9607 6.7919 17.0065L6.19226 16.9967ZM6.49208 4.35373C6.06738 4.35182 5.65161 4.47606 5.2972 4.71079C4.9428 4.94552 4.66561 5.28023 4.50057 5.67272C4.33554 6.06521 4.29006 6.49792 4.36985 6.9163C4.44965 7.33468 4.65115 7.72 4.94896 8.02369C5.24677 8.32739 5.62756 8.53586 6.04332 8.62282C6.45909 8.70979 6.89122 8.67136 7.28524 8.51238C7.67926 8.3534 8.01753 8.08098 8.25742 7.72947C8.4973 7.37796 8.62807 6.96309 8.63322 6.53715C8.63537 6.25245 8.58147 5.97012 8.47462 5.70634C8.36777 5.44257 8.21007 5.20253 8.01056 5C7.81104 4.79747 7.57364 4.63641 7.31195 4.52607C7.05026 4.41574 6.76943 4.35828 6.48556 4.357L6.49208 4.35373Z" fill="url(#paint0_linear_558_2573)"/>
</g>
<defs>
<linearGradient id="paint0_linear_558_2573" x1="0.100893" y1="0.377921" x2="14.7373" y2="2.30851" gradientUnits="userSpaceOnUse">
<stop stop-color="#402060"/>
<stop offset="1" stop-color="#602C93"/>
</linearGradient>
<clipPath id="clip0_558_2573">
<rect width="13" height="17" fill="white"/>
</clipPath>
</defs>
</svg>
