<svg width="62" height="62" viewBox="0 0 62 62" fill="none" xmlns="http://www.w3.org/2000/svg">
<path d="M56.8689 1.10644e-06H5.13757C4.46305 -0.000460511 3.79505 0.143525 3.17175 0.423731C2.54845 0.703937 1.98206 1.11487 1.50495 1.63305C1.02785 2.15123 0.649364 2.7665 0.391137 3.44371C0.13291 4.12091 -1.33741e-07 4.84678 0 5.57983L0 56.4202C0 57.9 0.540937 59.3193 1.50381 60.3657C2.46669 61.4121 3.77262 62 5.13433 62H56.8657C57.5398 62 58.2073 61.8556 58.83 61.5752C59.4527 61.2947 60.0185 60.8837 60.495 60.3655C60.9715 59.8473 61.3494 59.2322 61.6071 58.5552C61.8648 57.8783 61.9972 57.1528 61.9968 56.4202V5.57983C61.9972 4.84753 61.8649 4.12232 61.6074 3.4456C61.3499 2.76887 60.9724 2.15388 60.4962 1.63575C60.02 1.11761 59.4546 0.706479 58.8322 0.425817C58.2099 0.145155 57.5427 0.000462392 56.8689 1.10644e-06ZM40.1338 39.129C36.936 42.0873 34.2435 45.6355 32.1801 49.6105C32.0835 49.8518 31.9265 50.0587 31.7271 50.2078C31.5276 50.3569 31.2936 50.4421 31.0517 50.4538C30.8084 50.4509 30.5711 50.3708 30.369 50.2236C30.1668 50.0763 30.0086 49.8681 29.9136 49.6246C27.7273 45.4457 24.8666 41.7286 21.4685 38.6512C18.9069 36.3032 17.2537 32.9922 16.8385 29.3784C16.1402 23.8337 17.7244 19.1323 21.5558 15.3972C23.9944 12.9669 27.1679 11.5918 30.4762 11.5321C38.1034 11.634 44.1818 17.27 45.155 24.7965C45.9116 30.5415 44.1689 35.3518 40.1338 39.129Z" fill="#602C93"/>
<path d="M31.0784 20.7032C29.9003 20.6963 28.7469 21.0694 27.7641 21.7753C26.7812 22.4813 26.0133 23.4883 25.5574 24.6688C25.1016 25.8494 24.9783 27.1504 25.2033 28.4072C25.4282 29.6639 25.9913 30.8199 26.8212 31.7286C27.651 32.6374 28.7103 33.2581 29.865 33.5121C31.0196 33.7661 32.2177 33.6421 33.3075 33.1557C34.3972 32.6693 35.3296 31.8424 35.9867 30.7797C36.6437 29.717 36.9958 28.4664 36.9984 27.1861C37.001 25.4744 36.3796 23.8312 35.2701 22.6163C34.1606 21.4013 32.6534 20.7134 31.0784 20.7032Z" fill="#602C93"/>
</svg>
