<svg width="58" height="71" viewBox="0 0 58 71" fill="none" xmlns="http://www.w3.org/2000/svg">
<path d="M47.0547 0H6.52088C4.79144 0 3.13283 0.683635 1.90992 1.90051C0.68702 3.11739 0 4.76783 0 6.48876L0 13.1138H49.011V1.94663C49.011 1.43035 48.8049 0.935218 48.438 0.570154C48.0711 0.205091 47.5735 0 47.0547 0V0ZM44.4137 8.87987H6.74585C6.09042 8.89023 5.45509 8.65463 4.96632 8.21997C4.47755 7.78531 4.17117 7.18345 4.10816 6.53418C4.08164 6.19178 4.12655 5.84762 4.24005 5.52331C4.35355 5.19899 4.5332 4.90153 4.76771 4.64958C5.00223 4.39764 5.28655 4.19665 5.60284 4.05924C5.91912 3.92183 6.26054 3.85096 6.60566 3.85108H44.4268L44.4137 8.87987Z" fill="#602C93"/>
<path d="M56.0437 8.87891H0V64.5103C0 66.2312 0.68702 67.8816 1.90992 69.0985C3.13283 70.3154 4.79144 70.999 6.52088 70.999H56.0437C56.5626 70.999 57.0602 70.794 57.427 70.4289C57.7939 70.0638 58 69.5687 58 69.0524V10.8255C58 10.3093 57.7939 9.81412 57.427 9.44906C57.0602 9.084 56.5626 8.87891 56.0437 8.87891ZM29.194 29.1401C33.4097 29.5229 38.1472 33.1404 39.0536 38.6072L36.5169 39.0549C35.5649 34.967 33.0218 32.5045 28.8516 31.6544C28.956 30.8206 29.0734 29.9739 29.194 29.1401ZM42.1053 51.9416C41.1272 52.9927 40.1197 54.0277 39.0699 55.014C38.2417 55.7959 37.1788 56.0522 35.9822 56.0522C34.2075 55.9842 32.4627 55.5755 30.8438 54.8485C24.2512 51.9967 19.1453 47.4416 15.3534 41.4006C13.9488 39.2325 12.9204 36.8449 12.3114 34.3375C11.9956 33.117 11.9956 31.8368 12.3114 30.6162C12.4946 30.0095 12.8314 29.4599 13.2896 29.02C14.1536 28.1538 15.0176 27.2875 15.8979 26.4245C16.7782 25.5615 17.7564 25.2403 18.9692 25.9865C19.2048 26.1394 19.4233 26.3167 19.6213 26.5154C20.8668 27.7709 22.1351 29.0395 23.3969 30.3015C24.0099 30.9147 24.437 31.5993 24.3066 32.5239C24.1878 33.1425 23.8655 33.7041 23.3904 34.1202C22.6438 34.8664 21.8939 35.6061 21.144 36.3523C20.7429 36.7481 20.7397 36.839 20.9744 37.3613C21.845 39.256 23.1491 40.8393 24.5381 42.3479C25.9087 43.8535 27.4731 45.1724 29.1907 46.2704C29.7874 46.6402 30.4264 46.9387 31.0459 47.2729C31.1675 47.3403 31.3102 47.3597 31.4455 47.3272C31.5808 47.2947 31.6989 47.2128 31.7763 47.0977C32.5522 46.3169 33.3304 45.5393 34.1107 44.765C34.5314 44.2945 35.0985 43.978 35.7214 43.8663C36.0383 43.8262 36.3601 43.852 36.6665 43.9419C36.9729 44.0318 37.2572 44.1839 37.5016 44.3886C37.6733 44.526 37.8376 44.6722 37.9939 44.8266L41.7337 48.5447C42.1637 48.927 42.471 49.4269 42.6172 49.9819C42.7034 50.3251 42.7016 50.6843 42.6122 51.0267C42.5228 51.369 42.3485 51.6836 42.1053 51.9416ZM45.9331 38.1529L43.3965 38.6072C41.6065 31.0121 36.8984 26.4634 29.194 24.8997C29.3016 24.0821 29.4157 23.2191 29.52 22.3561L29.5689 22.3236C30.3743 22.5118 31.1992 22.6675 31.9882 22.8816C35.4138 23.7932 38.5129 25.6448 40.9316 28.2251C43.1664 30.5749 44.768 33.4487 45.5875 36.5794C45.7244 37.0823 45.832 37.5949 45.9592 38.1043L45.9331 38.1529Z" fill="#602C93"/>
</svg>
